<mxfile host="drawio-plugin" modified="2021-04-13T14:19:00.463Z" agent="5.0 (Windows NT 6.2; Win64; x64) AppleWebKit/537.36 (KHTML, like Gecko) Chrome/84.0.4147.105 Safari/537.36" etag="O75RG6rK2TXqojlXck4L" version="13.7.9" type="embed"><diagram id="mSqcu9JkYWeNLQvoUkdU" name="Page-1"><mxGraphModel dx="474" dy="297" grid="1" gridSize="10" guides="1" tooltips="1" connect="1" arrows="1" fold="1" page="1" pageScale="1" pageWidth="827" pageHeight="583" background="none" math="0" shadow="0"><root><mxCell id="0"/><mxCell id="1" parent="0"/><mxCell id="DVKjBasyXGfh041QT-eS-1" value="" style="rounded=1;whiteSpace=wrap;html=1;arcSize=41;" parent="1" vertex="1"><mxGeometry x="110" y="30" width="120" height="60" as="geometry"/></mxCell><mxCell id="DVKjBasyXGfh041QT-eS-3" value="" style="endArrow=classic;html=1;exitX=0.5;exitY=1;exitDx=0;exitDy=0;" parent="1" source="DVKjBasyXGfh041QT-eS-1" target="DVKjBasyXGfh041QT-eS-4" edge="1"><mxGeometry width="50" height="50" relative="1" as="geometry"><mxPoint x="145" y="170" as="sourcePoint"/><mxPoint x="170" y="140" as="targetPoint"/></mxGeometry></mxCell><mxCell id="DVKjBasyXGfh041QT-eS-4" value="" style="shape=parallelogram;perimeter=parallelogramPerimeter;whiteSpace=wrap;html=1;fixedSize=1;" parent="1" vertex="1"><mxGeometry x="110" y="130" width="120" height="80" as="geometry"/></mxCell><mxCell id="3" style="edgeStyle=orthogonalEdgeStyle;rounded=0;orthogonalLoop=1;jettySize=auto;html=1;entryX=0.5;entryY=0;entryDx=0;entryDy=0;" edge="1" parent="1" source="DVKjBasyXGfh041QT-eS-5" target="DVKjBasyXGfh041QT-eS-16"><mxGeometry relative="1" as="geometry"/></mxCell><mxCell id="DVKjBasyXGfh041QT-eS-5" value="" style="shape=loopLimit;whiteSpace=wrap;html=1;" parent="1" vertex="1"><mxGeometry x="285" y="130" width="150" height="80" as="geometry"/></mxCell><mxCell id="DVKjBasyXGfh041QT-eS-6" value="" style="endArrow=classic;html=1;exitX=1;exitY=0.5;exitDx=0;exitDy=0;entryX=0;entryY=0.5;entryDx=0;entryDy=0;" parent="1" source="DVKjBasyXGfh041QT-eS-4" target="DVKjBasyXGfh041QT-eS-5" edge="1"><mxGeometry width="50" height="50" relative="1" as="geometry"><mxPoint x="260" y="220" as="sourcePoint"/><mxPoint x="470" y="270" as="targetPoint"/></mxGeometry></mxCell><mxCell id="DVKjBasyXGfh041QT-eS-7" value="Запуск метода" style="text;html=1;strokeColor=none;fillColor=none;align=center;verticalAlign=middle;whiteSpace=wrap;rounded=0;fontFamily=Verdana;" parent="1" vertex="1"><mxGeometry x="150" y="50" width="40" height="20" as="geometry"/></mxCell><mxCell id="DVKjBasyXGfh041QT-eS-8" value="Считываем массив arr" style="text;html=1;strokeColor=none;fillColor=none;align=center;verticalAlign=middle;whiteSpace=wrap;rounded=0;fontFamily=Verdana;" parent="1" vertex="1"><mxGeometry x="150" y="160" width="40" height="20" as="geometry"/></mxCell><mxCell id="DVKjBasyXGfh041QT-eS-9" value="Цикл i&lt;br&gt;&lt;br&gt;(i = 0; i &amp;lt; arr.length-1)" style="text;html=1;strokeColor=none;fillColor=none;align=center;verticalAlign=middle;whiteSpace=wrap;rounded=0;fontFamily=Verdana;" parent="1" vertex="1"><mxGeometry x="287.5" y="140" width="145" height="60" as="geometry"/></mxCell><mxCell id="DVKjBasyXGfh041QT-eS-47" style="edgeStyle=orthogonalEdgeStyle;rounded=0;orthogonalLoop=1;jettySize=auto;html=1;exitX=1;exitY=0.5;exitDx=0;exitDy=0;entryX=1;entryY=0.5;entryDx=0;entryDy=0;fontFamily=Verdana;" parent="1" source="DVKjBasyXGfh041QT-eS-10" target="DVKjBasyXGfh041QT-eS-46" edge="1"><mxGeometry relative="1" as="geometry"/></mxCell><mxCell id="DVKjBasyXGfh041QT-eS-10" value="" style="shape=loopLimit;whiteSpace=wrap;html=1;rotation=-180;" parent="1" vertex="1"><mxGeometry x="285" y="700" width="150" height="80" as="geometry"/></mxCell><mxCell id="DVKjBasyXGfh041QT-eS-11" value="увеличить i на 1&lt;br&gt;(i++)&lt;br&gt;&lt;span&gt;&lt;br&gt;Цикл i&lt;/span&gt;" style="text;html=1;strokeColor=none;fillColor=none;align=center;verticalAlign=middle;whiteSpace=wrap;rounded=0;" parent="1" vertex="1"><mxGeometry x="290" y="720" width="130" height="40" as="geometry"/></mxCell><mxCell id="5" style="edgeStyle=orthogonalEdgeStyle;rounded=0;orthogonalLoop=1;jettySize=auto;html=1;entryX=0.5;entryY=0;entryDx=0;entryDy=0;" edge="1" parent="1" source="DVKjBasyXGfh041QT-eS-16" target="DVKjBasyXGfh041QT-eS-18"><mxGeometry relative="1" as="geometry"/></mxCell><mxCell id="DVKjBasyXGfh041QT-eS-16" value="Цикл j&lt;br&gt;&lt;br&gt;&lt;br&gt;(j = i + 1, j &amp;lt; arr.length)" style="shape=loopLimit;whiteSpace=wrap;html=1;fontFamily=Verdana;" parent="1" vertex="1"><mxGeometry x="240" y="240" width="240" height="80" as="geometry"/></mxCell><mxCell id="DVKjBasyXGfh041QT-eS-18" value="&lt;font style=&quot;font-size: 13px&quot;&gt;arr[j] &amp;gt; arr[j+1] ?&lt;/font&gt;" style="rhombus;whiteSpace=wrap;html=1;fontFamily=Verdana;" parent="1" vertex="1"><mxGeometry x="285" y="350" width="150" height="80" as="geometry"/></mxCell><mxCell id="DVKjBasyXGfh041QT-eS-41" style="edgeStyle=orthogonalEdgeStyle;rounded=0;orthogonalLoop=1;jettySize=auto;html=1;exitX=0.5;exitY=1;exitDx=0;exitDy=0;entryX=0.5;entryY=1;entryDx=0;entryDy=0;fontFamily=Verdana;" parent="1" source="DVKjBasyXGfh041QT-eS-27" target="DVKjBasyXGfh041QT-eS-30" edge="1"><mxGeometry relative="1" as="geometry"/></mxCell><mxCell id="DVKjBasyXGfh041QT-eS-27" value="int a = arr[j];&lt;br&gt;arr[j] = arr[j+1];&lt;br&gt;arr[j+1] = a;" style="rounded=0;whiteSpace=wrap;html=1;fontFamily=Verdana;" parent="1" vertex="1"><mxGeometry x="300" y="480" width="120" height="60" as="geometry"/></mxCell><mxCell id="15" style="edgeStyle=orthogonalEdgeStyle;rounded=0;orthogonalLoop=1;jettySize=auto;html=1;entryX=0.5;entryY=1;entryDx=0;entryDy=0;" edge="1" parent="1" source="DVKjBasyXGfh041QT-eS-30" target="DVKjBasyXGfh041QT-eS-10"><mxGeometry relative="1" as="geometry"/></mxCell><mxCell id="DVKjBasyXGfh041QT-eS-30" value="" style="shape=loopLimit;whiteSpace=wrap;html=1;rotation=-180;" parent="1" vertex="1"><mxGeometry x="240" y="575" width="240" height="80" as="geometry"/></mxCell><mxCell id="DVKjBasyXGfh041QT-eS-33" value="увеличить j на 1&lt;br&gt;(j++)&lt;br&gt;&lt;br&gt;Цикл j" style="text;html=1;strokeColor=none;fillColor=none;align=center;verticalAlign=middle;whiteSpace=wrap;rounded=0;fontFamily=Verdana;" parent="1" vertex="1"><mxGeometry x="295" y="590" width="130" height="50" as="geometry"/></mxCell><mxCell id="DVKjBasyXGfh041QT-eS-46" value="Завершение&lt;br&gt;метода" style="rounded=1;whiteSpace=wrap;html=1;arcSize=41;" parent="1" vertex="1"><mxGeometry x="80" y="710" width="120" height="60" as="geometry"/></mxCell><mxCell id="10" style="edgeStyle=orthogonalEdgeStyle;rounded=0;orthogonalLoop=1;jettySize=auto;html=1;entryX=0.113;entryY=0.993;entryDx=0;entryDy=0;entryPerimeter=0;" edge="1" parent="1" source="8" target="DVKjBasyXGfh041QT-eS-30"><mxGeometry relative="1" as="geometry"><mxPoint x="453" y="560" as="targetPoint"/></mxGeometry></mxCell><mxCell id="8" value="Нет" style="text;html=1;align=center;verticalAlign=middle;resizable=0;points=[];autosize=1;" vertex="1" parent="1"><mxGeometry x="432.5" y="380" width="40" height="20" as="geometry"/></mxCell><mxCell id="13" style="edgeStyle=orthogonalEdgeStyle;rounded=0;orthogonalLoop=1;jettySize=auto;html=1;entryX=0.5;entryY=0;entryDx=0;entryDy=0;" edge="1" parent="1" source="12" target="DVKjBasyXGfh041QT-eS-27"><mxGeometry relative="1" as="geometry"/></mxCell><mxCell id="12" value="Да" style="text;html=1;align=center;verticalAlign=middle;resizable=0;points=[];autosize=1;" vertex="1" parent="1"><mxGeometry x="345" y="430" width="30" height="20" as="geometry"/></mxCell></root></mxGraphModel></diagram></mxfile>